<svg id="Layer_1" data-name="Layer 1" xmlns="http://www.w3.org/2000/svg" width="119" height="45.07679"><title>logo glavnaya</title><path d="M1183.74037,143.88492a9.31163,9.31163,0,1,1-5.94264,17.64964,10.59947,10.59947,0,0,1-2.43648-1.30738l2.49591-1.78279h0a2.75628,2.75628,0,0,0,1.01025-1.90164h0a2.95415,2.95415,0,0,0-.59427-2.07992h0v0a3.29682,3.29682,0,0,0-1.78279-1.248h0a2.38206,2.38206,0,0,0-2.07992.416H1174.351l-2.43648,1.78279a8.936,8.936,0,0,1,.05943-5.70493,9.2318,9.2318,0,0,1,11.76642-5.82378h0Z" transform="translate(-1090.50542 -141.8666)" fill="#ff6b4b" fill-rule="evenodd"/><path d="M1139.46771,156.66159l7.78486,4.39755a1.83094,1.83094,0,0,1,.53484,2.49591h0a1.79635,1.79635,0,0,1-2.37705.832l-8.02256-4.51641a12.94478,12.94478,0,0,0,2.07992-3.209h0Z" transform="translate(-1090.50542 -141.8666)" fill="#ff72ab" fill-rule="evenodd"/><path d="M1177.44117,155.05708h0a1.82214,1.82214,0,0,1-.2377,2.49591l-4.15985,3.03075a18.248,18.248,0,0,0-2.2582-3.03075l4.21927-3.03074a1.78616,1.78616,0,0,1,2.43648.53484h0Z" transform="translate(-1090.50542 -141.8666)" fill="#ff6b4b" fill-rule="evenodd"/><path d="M1118.96561,153.15543a10.3394,10.3394,0,0,1,9.15166-11.23158,10.24766,10.24766,0,0,1,2.13935,20.38325,10.80184,10.80184,0,0,1-5.70493-1.06968l2.07993-1.78279v-0.05942a3.61643,3.61643,0,0,0,1.248-2.793,4.58016,4.58016,0,0,0-1.1291-3.03075h0l-0.05943-.05943h0a4.58817,4.58817,0,0,0-2.73361-1.54508,3.57868,3.57868,0,0,0-2.97132.77254v0.05943h-0.05943l-1.72337,1.54508a8.41405,8.41405,0,0,1-.23771-1.18853h0Z" transform="translate(-1090.50542 -141.8666)" fill="#ff72ab" fill-rule="evenodd"/><path d="M1118.54963,156.36446l3.09017-2.73361a3.037,3.037,0,0,1,4.2787.65369h0a3.0776,3.0776,0,0,1,0,4.33812l-3.1496,2.73362a18.12381,18.12381,0,0,0-4.21927-4.99182h0Z" transform="translate(-1090.50542 -141.8666)" fill="#ffd447" fill-rule="evenodd"/><path d="M1196.04163,150.89723h0a1.12907,1.12907,0,0,1-.95082,1.30738l-4.041.35656a8.3353,8.3353,0,0,0-.35657-2.43648l4.15985-.35656a1.17617,1.17617,0,0,1,1.18853,1.1291h0Z" transform="translate(-1090.50542 -141.8666)" fill="#ff9c46" fill-rule="evenodd"/><path d="M1158.00875,152.79888a16.64863,16.64863,0,0,1,16.52053,15.0943l-1.48566-.11886h0a2.86064,2.86064,0,0,0-2.2582.77254,3.85286,3.85286,0,0,0-1.06968,2.19878h0a3.87371,3.87371,0,0,0,.59427,2.31763h0a3.04,3.04,0,0,0,2.07993,1.248h0l1.42623,0.11885a16.60559,16.60559,0,1,1-31.496-10.51847l2.43648,1.30738a2.867,2.867,0,0,0,2.31763.29714,3.14588,3.14588,0,0,0,1.60451-1.42624,3.05192,3.05192,0,0,0,.416-2.13935,2.53233,2.53233,0,0,0-1.30738-1.78279l-2.4959-1.42624a16.5469,16.5469,0,0,1,12.71725-5.94264h0Z" transform="translate(-1090.50542 -141.8666)" fill="#3298dc" fill-rule="evenodd"/><path d="M1147.84683,145.1923a4.95846,4.95846,0,0,1,6.834-.8914,4.82448,4.82448,0,0,1,.8914,6.77461,3.11479,3.11479,0,0,1-.59426.65369l-0.416-1.30738h0a1.78667,1.78667,0,0,0-1.06968-1.18853h0a2.10352,2.10352,0,0,0-1.48566-.05943h0a2.53179,2.53179,0,0,0-1.18853.8914h0a1.99835,1.99835,0,0,0-.17828,1.54508h0l0.416,1.30738a5.02135,5.02135,0,0,1-2.2582-.8914,4.91279,4.91279,0,0,1-.95082-6.834h0Z" transform="translate(-1090.50542 -141.8666)" fill="#58c7ff" fill-rule="evenodd"/><path d="M1091.09464,174.48951a16.76471,16.76471,0,1,1,20.5021,11.88528,16.712,16.712,0,0,1-20.5021-11.88528h0Z" transform="translate(-1090.50542 -141.8666)" fill="#ffd447" fill-rule="evenodd"/><path d="M1200.974,148.28247a3.987,3.987,0,0,1-6.12092,5.11067l-0.05943-.05943,0.35656-.05942h0.05943a1.98669,1.98669,0,0,0,1.42624-.832h0a2.01924,2.01924,0,0,0,.47541-1.54509v-0.05942h0v-0.05943a2.50774,2.50774,0,0,0-.71312-1.48566,1.94492,1.94492,0,0,0-1.60451-.59426h-0.29713a5.95307,5.95307,0,0,1,.832-0.95082,3.98631,3.98631,0,0,1,5.64551.53484h0Z" transform="translate(-1090.50542 -141.8666)" fill="#ff9c46" fill-rule="evenodd"/><path d="M1152.36324,150.18411h0a0.97724,0.97724,0,0,1,1.18853.53484l0.47541,1.66394c-0.59426.17828-1.248,0.35656-1.84222,0.53484l-0.53484-1.60452a0.96724,0.96724,0,0,1,.71312-1.1291h0Z" transform="translate(-1090.50542 -141.8666)" fill="#58c7ff" fill-rule="evenodd"/><path d="M1207.21379,167.89318a11.88205,11.88205,0,0,1-20.68038,11.707,11.88205,11.88205,0,1,1,20.68038-11.707h0Z" transform="translate(-1090.50542 -141.8666)" fill="#c796d7" fill-rule="evenodd"/><path d="M1183.91865,174.37065l-11.40987-1.1291a2.12955,2.12955,0,0,1-1.72336-2.43648h0a2.11946,2.11946,0,0,1,2.13934-1.96107l11.52872,1.18853a13.18335,13.18335,0,0,0-.53484,4.33813h0Z" transform="translate(-1090.50542 -141.8666)" fill="#c796d7" fill-rule="evenodd"/></svg>